<mxfile host="app.diagrams.net" modified="2023-09-03T07:28:41.001Z" agent="Mozilla/5.0 (Windows NT 10.0; Win64; x64) AppleWebKit/537.36 (KHTML, like Gecko) Chrome/116.0.0.0 Safari/537.36 Edg/116.0.1938.69" etag="NA5ZV29tKlh8GGUeLvpB" version="21.6.8" type="device">
  <diagram name="Page-1" id="dmdK4p0aS_6tF7l5sNDo">
    <mxGraphModel dx="2085" dy="1028" grid="1" gridSize="10" guides="1" tooltips="1" connect="1" arrows="1" fold="1" page="1" pageScale="1" pageWidth="850" pageHeight="1100" math="0" shadow="0">
      <root>
        <mxCell id="0" />
        <mxCell id="1" parent="0" />
        <mxCell id="a2_YS3-_koCijpST8d4B-7" style="edgeStyle=orthogonalEdgeStyle;rounded=0;orthogonalLoop=1;jettySize=auto;html=1;entryX=0.461;entryY=-0.039;entryDx=0;entryDy=0;entryPerimeter=0;" edge="1" parent="1" source="a2_YS3-_koCijpST8d4B-1" target="a2_YS3-_koCijpST8d4B-2">
          <mxGeometry relative="1" as="geometry" />
        </mxCell>
        <mxCell id="a2_YS3-_koCijpST8d4B-1" value="Start" style="ellipse;whiteSpace=wrap;html=1;" vertex="1" parent="1">
          <mxGeometry x="300" y="110" width="120" height="50" as="geometry" />
        </mxCell>
        <mxCell id="a2_YS3-_koCijpST8d4B-8" style="edgeStyle=orthogonalEdgeStyle;rounded=0;orthogonalLoop=1;jettySize=auto;html=1;" edge="1" parent="1" source="a2_YS3-_koCijpST8d4B-2">
          <mxGeometry relative="1" as="geometry">
            <mxPoint x="330" y="288" as="targetPoint" />
          </mxGeometry>
        </mxCell>
        <mxCell id="a2_YS3-_koCijpST8d4B-2" value="" style="image;aspect=fixed;html=1;points=[];align=center;fontSize=12;image=img/lib/azure2/security/Key_Vaults.svg;" vertex="1" parent="1">
          <mxGeometry x="110" y="260" width="58" height="58" as="geometry" />
        </mxCell>
        <mxCell id="a2_YS3-_koCijpST8d4B-9" style="edgeStyle=orthogonalEdgeStyle;rounded=0;orthogonalLoop=1;jettySize=auto;html=1;entryX=0;entryY=0.5;entryDx=0;entryDy=0;entryPerimeter=0;" edge="1" parent="1" source="a2_YS3-_koCijpST8d4B-3" target="a2_YS3-_koCijpST8d4B-4">
          <mxGeometry relative="1" as="geometry" />
        </mxCell>
        <mxCell id="a2_YS3-_koCijpST8d4B-3" value="" style="image;aspect=fixed;html=1;points=[];align=center;fontSize=12;image=img/lib/azure2/compute/Function_Apps.svg;" vertex="1" parent="1">
          <mxGeometry x="332" y="258" width="68" height="60" as="geometry" />
        </mxCell>
        <mxCell id="a2_YS3-_koCijpST8d4B-24" style="edgeStyle=orthogonalEdgeStyle;rounded=0;orthogonalLoop=1;jettySize=auto;html=1;entryX=0.5;entryY=0;entryDx=0;entryDy=0;" edge="1" parent="1" source="a2_YS3-_koCijpST8d4B-4" target="a2_YS3-_koCijpST8d4B-15">
          <mxGeometry relative="1" as="geometry">
            <Array as="points">
              <mxPoint x="555" y="370" />
              <mxPoint x="270" y="370" />
            </Array>
          </mxGeometry>
        </mxCell>
        <mxCell id="a2_YS3-_koCijpST8d4B-4" value="" style="verticalLabelPosition=bottom;html=1;verticalAlign=top;align=center;strokeColor=none;fillColor=#00BEF2;shape=mxgraph.azure.storage_blob;" vertex="1" parent="1">
          <mxGeometry x="530" y="265" width="50" height="45" as="geometry" />
        </mxCell>
        <mxCell id="a2_YS3-_koCijpST8d4B-10" value="Stores credentials" style="text;html=1;align=center;verticalAlign=middle;resizable=0;points=[];autosize=1;strokeColor=none;fillColor=none;" vertex="1" parent="1">
          <mxGeometry x="80" y="317" width="120" height="30" as="geometry" />
        </mxCell>
        <mxCell id="a2_YS3-_koCijpST8d4B-11" value="Mail Ingestion Function" style="text;html=1;align=center;verticalAlign=middle;resizable=0;points=[];autosize=1;strokeColor=none;fillColor=none;" vertex="1" parent="1">
          <mxGeometry x="285" y="312" width="150" height="30" as="geometry" />
        </mxCell>
        <mxCell id="a2_YS3-_koCijpST8d4B-12" value="Raw Emails" style="text;html=1;align=center;verticalAlign=middle;resizable=0;points=[];autosize=1;strokeColor=none;fillColor=none;" vertex="1" parent="1">
          <mxGeometry x="510" y="240" width="90" height="30" as="geometry" />
        </mxCell>
        <mxCell id="a2_YS3-_koCijpST8d4B-28" style="edgeStyle=orthogonalEdgeStyle;rounded=0;orthogonalLoop=1;jettySize=auto;html=1;entryX=0.5;entryY=1;entryDx=0;entryDy=0;" edge="1" parent="1" source="a2_YS3-_koCijpST8d4B-13" target="a2_YS3-_koCijpST8d4B-14">
          <mxGeometry relative="1" as="geometry" />
        </mxCell>
        <mxCell id="a2_YS3-_koCijpST8d4B-13" value="" style="image;aspect=fixed;html=1;points=[];align=center;fontSize=12;image=img/lib/azure2/databases/Azure_Cosmos_DB.svg;" vertex="1" parent="1">
          <mxGeometry x="523" y="430" width="64" height="64" as="geometry" />
        </mxCell>
        <mxCell id="a2_YS3-_koCijpST8d4B-14" value="" style="image;aspect=fixed;perimeter=ellipsePerimeter;html=1;align=center;shadow=0;dashed=0;fontColor=#4277BB;labelBackgroundColor=default;fontSize=12;spacingTop=3;image=img/lib/ibm/infrastructure/dashboard.svg;" vertex="1" parent="1">
          <mxGeometry x="690" y="348" width="60" height="60" as="geometry" />
        </mxCell>
        <mxCell id="a2_YS3-_koCijpST8d4B-27" style="edgeStyle=orthogonalEdgeStyle;rounded=0;orthogonalLoop=1;jettySize=auto;html=1;" edge="1" parent="1" source="a2_YS3-_koCijpST8d4B-15" target="a2_YS3-_koCijpST8d4B-13">
          <mxGeometry relative="1" as="geometry" />
        </mxCell>
        <mxCell id="a2_YS3-_koCijpST8d4B-15" value="" style="rounded=0;whiteSpace=wrap;html=1;" vertex="1" parent="1">
          <mxGeometry x="110" y="400" width="320" height="200" as="geometry" />
        </mxCell>
        <mxCell id="a2_YS3-_koCijpST8d4B-16" value="ML pipeline" style="text;html=1;align=center;verticalAlign=middle;resizable=0;points=[];autosize=1;strokeColor=none;fillColor=none;" vertex="1" parent="1">
          <mxGeometry x="230" y="599" width="80" height="30" as="geometry" />
        </mxCell>
        <mxCell id="a2_YS3-_koCijpST8d4B-21" style="edgeStyle=orthogonalEdgeStyle;rounded=0;orthogonalLoop=1;jettySize=auto;html=1;entryX=0;entryY=0.5;entryDx=0;entryDy=0;" edge="1" parent="1" source="a2_YS3-_koCijpST8d4B-17" target="a2_YS3-_koCijpST8d4B-18">
          <mxGeometry relative="1" as="geometry" />
        </mxCell>
        <mxCell id="a2_YS3-_koCijpST8d4B-17" value="Text pre-processing" style="rounded=0;whiteSpace=wrap;html=1;" vertex="1" parent="1">
          <mxGeometry x="130" y="440" width="121" height="30" as="geometry" />
        </mxCell>
        <mxCell id="a2_YS3-_koCijpST8d4B-22" style="edgeStyle=orthogonalEdgeStyle;rounded=0;orthogonalLoop=1;jettySize=auto;html=1;exitX=0.5;exitY=1;exitDx=0;exitDy=0;" edge="1" parent="1" source="a2_YS3-_koCijpST8d4B-18" target="a2_YS3-_koCijpST8d4B-19">
          <mxGeometry relative="1" as="geometry" />
        </mxCell>
        <mxCell id="a2_YS3-_koCijpST8d4B-18" value="topic modelling" style="rounded=0;whiteSpace=wrap;html=1;" vertex="1" parent="1">
          <mxGeometry x="285" y="440" width="121" height="30" as="geometry" />
        </mxCell>
        <mxCell id="a2_YS3-_koCijpST8d4B-23" style="edgeStyle=orthogonalEdgeStyle;rounded=0;orthogonalLoop=1;jettySize=auto;html=1;entryX=0;entryY=0.5;entryDx=0;entryDy=0;" edge="1" parent="1" source="a2_YS3-_koCijpST8d4B-19" target="a2_YS3-_koCijpST8d4B-20">
          <mxGeometry relative="1" as="geometry" />
        </mxCell>
        <mxCell id="a2_YS3-_koCijpST8d4B-19" value="Feature Extraction" style="rounded=0;whiteSpace=wrap;html=1;" vertex="1" parent="1">
          <mxGeometry x="132" y="502" width="121" height="30" as="geometry" />
        </mxCell>
        <mxCell id="a2_YS3-_koCijpST8d4B-26" style="edgeStyle=orthogonalEdgeStyle;rounded=0;orthogonalLoop=1;jettySize=auto;html=1;entryX=1;entryY=0.5;entryDx=0;entryDy=0;" edge="1" parent="1" source="a2_YS3-_koCijpST8d4B-20" target="a2_YS3-_koCijpST8d4B-25">
          <mxGeometry relative="1" as="geometry" />
        </mxCell>
        <mxCell id="a2_YS3-_koCijpST8d4B-20" value="ML algorithm" style="rounded=0;whiteSpace=wrap;html=1;" vertex="1" parent="1">
          <mxGeometry x="287" y="502" width="121" height="30" as="geometry" />
        </mxCell>
        <mxCell id="a2_YS3-_koCijpST8d4B-25" value="Feature creation and analytics" style="rounded=0;whiteSpace=wrap;html=1;" vertex="1" parent="1">
          <mxGeometry x="211" y="550" width="121" height="30" as="geometry" />
        </mxCell>
        <mxCell id="a2_YS3-_koCijpST8d4B-29" value="Cosmos db" style="text;html=1;align=center;verticalAlign=middle;resizable=0;points=[];autosize=1;strokeColor=none;fillColor=none;" vertex="1" parent="1">
          <mxGeometry x="512" y="492" width="80" height="30" as="geometry" />
        </mxCell>
        <mxCell id="a2_YS3-_koCijpST8d4B-30" value="Dashboard" style="text;html=1;align=center;verticalAlign=middle;resizable=0;points=[];autosize=1;strokeColor=none;fillColor=none;" vertex="1" parent="1">
          <mxGeometry x="680" y="318" width="80" height="30" as="geometry" />
        </mxCell>
        <mxCell id="a2_YS3-_koCijpST8d4B-33" value="" style="whiteSpace=wrap;html=1;aspect=fixed;" vertex="1" parent="1">
          <mxGeometry x="100" y="380.66" width="49.34" height="49.34" as="geometry" />
        </mxCell>
        <mxCell id="a2_YS3-_koCijpST8d4B-31" value="" style="image;aspect=fixed;html=1;points=[];align=center;fontSize=12;image=img/lib/azure2/compute/Function_Apps.svg;" vertex="1" parent="1">
          <mxGeometry x="102.00999999999999" y="384.66" width="45.33" height="40" as="geometry" />
        </mxCell>
      </root>
    </mxGraphModel>
  </diagram>
</mxfile>
